<svg width="104" height="104" viewBox="0 0 104 104" fill="none" xmlns="http://www.w3.org/2000/svg">
<circle cx="52" cy="52" r="50" fill="#242F42"/>
<path d="M52 0C23.3265 0 0 23.2746 0 51.9666C0 80.6585 23.3265 104 52 104C80.6735 104 104 80.6585 104 51.9666C103.933 23.3415 80.6735 0 52 0ZM26.2674 33.708L33.82 20.5994C34.2211 19.9305 34.8895 19.5293 35.6915 19.5293H50.8638C51.599 19.5293 52.3342 19.9305 52.7352 20.5994L60.2879 33.5743C60.6889 34.2431 60.6889 35.0457 60.2879 35.7145L52.8021 48.8232C52.401 49.492 51.7326 49.8932 50.9306 49.8932H35.7584C35.0231 49.8932 34.2879 49.492 33.8869 48.8232L26.3342 35.982C25.9332 35.1794 25.9332 34.3769 26.2674 33.708ZM60.3548 70.4257L52.8021 83.4006C52.401 84.0695 51.7326 84.4707 50.9306 84.4707H35.7584C35.0231 84.4707 34.2879 84.0695 33.8869 83.4006L26.3342 70.5595C25.9332 69.8907 25.9332 69.0881 26.3342 68.4193L33.82 55.2437C34.2211 54.5749 34.8895 54.1736 35.6915 54.1736H50.8638C51.599 54.1736 52.3342 54.5749 52.7352 55.2437L60.2879 68.2187C60.7558 68.9543 60.7558 69.7569 60.3548 70.4257ZM83.0797 66.0785C82.6787 66.7473 82.0103 67.1486 81.2082 67.1486H66.036C65.3008 67.1486 64.5656 66.7473 64.1645 66.0785L56.6118 53.2373C56.2108 52.5685 56.2108 51.7659 56.6118 51.0971L64.1645 37.9215C64.5656 37.2527 65.2339 36.8514 66.036 36.8514H81.2082C81.9434 36.8514 82.6787 37.2527 83.0797 37.9215L90.6324 50.8965C91.0334 51.5653 91.0334 52.3678 90.6324 53.0367L83.0797 66.0785Z" fill="#DBCB69"/>
</svg>
