<svg width="608" height="160" viewBox="0 0 608 160" fill="none" xmlns="http://www.w3.org/2000/svg">
<g filter="url(#filter0_d_202_41)">
<path d="M145.546 89L138.762 57.896H144.01L147.722 75.944C148.021 77.4373 148.277 78.8667 148.49 80.232C148.703 81.5973 148.917 83.0267 149.13 84.52H149.386C149.599 83.0267 149.855 81.5973 150.154 80.232C150.495 78.824 150.837 77.3947 151.178 75.944L155.018 59.816H160.266L163.978 75.944C164.319 77.4373 164.661 78.8667 165.002 80.232C165.386 81.5973 165.685 83.0267 165.898 84.52H166.154C166.41 83.0267 166.623 81.5973 166.794 80.232C167.007 78.8667 167.263 77.4373 167.562 75.944L171.274 57.896H176.138L169.482 89H162.698L159.114 74.152C158.602 71.976 158.09 68.904 157.578 64.936H157.322C156.81 68.904 156.298 71.976 155.786 74.152L152.33 89H145.546ZM197.745 89.768C195.398 89.768 193.201 89.4053 191.153 88.68C189.148 87.9547 187.377 86.888 185.841 85.48C184.348 84.072 183.153 82.3653 182.257 80.36C181.404 78.312 180.977 75.9867 180.977 73.384C180.977 70.8667 181.404 68.6053 182.257 66.6C183.153 64.5947 184.326 62.888 185.777 61.48C187.27 60.072 188.956 59.0053 190.833 58.28C192.753 57.512 194.758 57.128 196.849 57.128C199.068 57.128 201.052 57.4907 202.801 58.216C204.593 58.8987 206.086 59.88 207.281 61.16C208.518 62.44 209.457 63.976 210.097 65.768C210.737 67.56 211.057 69.544 211.057 71.72C211.057 72.3173 211.036 72.8933 210.993 73.448C210.95 74.0027 210.886 74.4933 210.801 74.92H186.289C186.63 78.4613 187.91 81.128 190.129 82.92C192.39 84.6693 195.142 85.544 198.385 85.544C200.262 85.544 201.948 85.288 203.441 84.776C204.977 84.2213 206.449 83.496 207.857 82.6L209.777 86.056C208.241 87.08 206.47 87.9547 204.465 88.68C202.502 89.4053 200.262 89.768 197.745 89.768ZM196.977 61.288C195.697 61.288 194.46 61.5013 193.265 61.928C192.113 62.3547 191.068 62.9733 190.129 63.784C189.19 64.552 188.401 65.5333 187.761 66.728C187.121 67.9227 186.673 69.288 186.417 70.824H206.257C206.044 67.624 205.105 65.2347 203.441 63.656C201.82 62.0773 199.665 61.288 196.977 61.288ZM235.48 89.768C233.987 89.768 232.365 89.4053 230.616 88.68C228.909 87.912 227.309 86.8667 225.816 85.544H225.624L225.176 89H220.952V43.432H226.2V55.848L226.008 61.864H226.2C227.608 60.4133 229.229 59.2613 231.064 58.408C232.941 57.5547 234.797 57.128 236.632 57.128C238.723 57.128 240.579 57.512 242.2 58.28C243.821 59.0053 245.165 60.072 246.232 61.48C247.341 62.8453 248.173 64.5093 248.728 66.472C249.283 68.392 249.56 70.5467 249.56 72.936C249.56 75.5813 249.176 77.9493 248.408 80.04C247.64 82.1307 246.595 83.9013 245.272 85.352C243.992 86.8027 242.499 87.912 240.792 88.68C239.085 89.4053 237.315 89.768 235.48 89.768ZM234.648 85.352C236.013 85.352 237.272 85.0747 238.424 84.52C239.576 83.9227 240.579 83.112 241.432 82.088C242.285 81.0213 242.947 79.72 243.416 78.184C243.885 76.648 244.12 74.92 244.12 73C244.12 71.2933 243.949 69.736 243.608 68.328C243.267 66.92 242.733 65.7253 242.008 64.744C241.325 63.72 240.429 62.9307 239.32 62.376C238.211 61.8213 236.888 61.544 235.352 61.544C233.987 61.544 232.515 61.928 230.936 62.696C229.4 63.4213 227.821 64.5947 226.2 66.216V81.704C227.693 83.0267 229.187 83.9653 230.68 84.52C232.216 85.0747 233.539 85.352 234.648 85.352ZM313.894 89.768C311.462 89.768 309.201 89.4053 307.11 88.68C305.062 87.9547 303.27 86.9093 301.734 85.544C300.198 84.136 299.003 82.4293 298.15 80.424C297.297 78.376 296.87 76.072 296.87 73.512C296.87 70.9093 297.318 68.6053 298.214 66.6C299.153 64.552 300.411 62.824 301.99 61.416C303.569 60.008 305.403 58.9413 307.494 58.216C309.627 57.4907 311.867 57.128 314.214 57.128C316.774 57.128 318.971 57.576 320.806 58.472C322.683 59.368 324.262 60.4347 325.542 61.672L322.918 65.064C321.638 63.9547 320.294 63.08 318.886 62.44C317.521 61.8 316.027 61.48 314.406 61.48C312.614 61.48 310.971 61.7787 309.478 62.376C307.985 62.9307 306.705 63.7413 305.638 64.808C304.614 65.8747 303.803 67.1547 303.206 68.648C302.609 70.0987 302.31 71.72 302.31 73.512C302.31 75.304 302.587 76.9253 303.142 78.376C303.739 79.8267 304.55 81.0853 305.574 82.152C306.641 83.176 307.899 83.9867 309.35 84.584C310.843 85.1387 312.486 85.416 314.278 85.416C316.198 85.416 317.947 85.0533 319.526 84.328C321.147 83.56 322.598 82.6213 323.878 81.512L326.246 84.904C324.497 86.44 322.577 87.6347 320.486 88.488C318.395 89.3413 316.198 89.768 313.894 89.768ZM339.469 89V57.896H343.821L344.269 65.256H344.461C346.082 62.7387 348.066 60.7547 350.413 59.304C352.802 57.8533 355.448 57.128 358.349 57.128C359.501 57.128 360.568 57.2347 361.549 57.448C362.53 57.6187 363.512 57.9387 364.493 58.408L363.277 62.952C362.168 62.568 361.229 62.2907 360.461 62.12C359.736 61.9493 358.754 61.864 357.517 61.864C355.17 61.864 352.909 62.5467 350.733 63.912C348.6 65.2347 346.594 67.5173 344.717 70.76V89H339.469ZM389.62 89.768C387.273 89.768 385.076 89.4053 383.028 88.68C381.023 87.9547 379.252 86.888 377.716 85.48C376.223 84.072 375.028 82.3653 374.132 80.36C373.279 78.312 372.852 75.9867 372.852 73.384C372.852 70.8667 373.279 68.6053 374.132 66.6C375.028 64.5947 376.201 62.888 377.652 61.48C379.145 60.072 380.831 59.0053 382.708 58.28C384.628 57.512 386.633 57.128 388.724 57.128C390.943 57.128 392.927 57.4907 394.676 58.216C396.468 58.8987 397.961 59.88 399.156 61.16C400.393 62.44 401.332 63.976 401.972 65.768C402.612 67.56 402.932 69.544 402.932 71.72C402.932 72.3173 402.911 72.8933 402.868 73.448C402.825 74.0027 402.761 74.4933 402.676 74.92H378.164C378.505 78.4613 379.785 81.128 382.004 82.92C384.265 84.6693 387.017 85.544 390.26 85.544C392.137 85.544 393.823 85.288 395.316 84.776C396.852 84.2213 398.324 83.496 399.732 82.6L401.652 86.056C400.116 87.08 398.345 87.9547 396.34 88.68C394.377 89.4053 392.137 89.768 389.62 89.768ZM388.852 61.288C387.572 61.288 386.335 61.5013 385.14 61.928C383.988 62.3547 382.943 62.9733 382.004 63.784C381.065 64.552 380.276 65.5333 379.636 66.728C378.996 67.9227 378.548 69.288 378.292 70.824H398.132C397.919 67.624 396.98 65.2347 395.316 63.656C393.695 62.0773 391.54 61.288 388.852 61.288ZM422.619 89.768C421.168 89.768 419.803 89.5547 418.523 89.128C417.243 88.744 416.112 88.1893 415.131 87.464C414.192 86.696 413.446 85.7787 412.891 84.712C412.336 83.6027 412.059 82.344 412.059 80.936C412.059 79.1867 412.464 77.672 413.275 76.392C414.128 75.0693 415.451 73.9387 417.243 73C419.078 72.0613 421.424 71.2933 424.283 70.696C427.142 70.0987 430.576 69.6293 434.587 69.288C434.544 68.2213 434.374 67.2187 434.075 66.28C433.776 65.3413 433.307 64.5307 432.667 63.848C432.027 63.1227 431.174 62.5467 430.107 62.12C429.083 61.6933 427.824 61.48 426.331 61.48C424.283 61.48 422.32 61.8853 420.443 62.696C418.566 63.464 416.902 64.296 415.451 65.192L413.403 61.608C414.171 61.096 415.067 60.584 416.091 60.072C417.158 59.5173 418.267 59.0267 419.419 58.6C420.614 58.1733 421.872 57.832 423.195 57.576C424.518 57.2773 425.862 57.128 427.227 57.128C431.494 57.128 434.651 58.3013 436.699 60.648C438.79 62.952 439.835 66.0453 439.835 69.928V89H435.547L435.099 84.776H434.907C433.158 86.1413 431.216 87.3147 429.083 88.296C426.992 89.2773 424.838 89.768 422.619 89.768ZM424.027 85.544C425.819 85.544 427.568 85.16 429.275 84.392C431.024 83.5813 432.795 82.4293 434.587 80.936V72.744C431.259 73 428.464 73.3627 426.203 73.832C423.984 74.3013 422.192 74.8773 420.827 75.56C419.504 76.2 418.566 76.9467 418.011 77.8C417.456 78.6107 417.179 79.528 417.179 80.552C417.179 81.448 417.371 82.216 417.755 82.856C418.139 83.4533 418.63 83.9653 419.227 84.392C419.867 84.776 420.592 85.0747 421.403 85.288C422.256 85.4587 423.131 85.544 424.027 85.544ZM470.466 89.768C468.205 89.768 466.306 89.4693 464.77 88.872C463.234 88.232 461.997 87.3573 461.058 86.248C460.119 85.096 459.437 83.7307 459.01 82.152C458.626 80.5733 458.434 78.824 458.434 76.904V62.184H449.666V58.216L458.626 57.896L459.33 47.912H463.682V57.896H478.978V62.184H463.682V76.968C463.682 78.376 463.81 79.6133 464.066 80.68C464.322 81.704 464.749 82.5787 465.346 83.304C465.943 84.0293 466.754 84.584 467.778 84.968C468.802 85.3093 470.061 85.48 471.554 85.48C473.047 85.48 474.391 85.352 475.586 85.096C476.781 84.84 477.933 84.4987 479.042 84.072L480.194 87.912C478.786 88.424 477.293 88.8507 475.714 89.192C474.178 89.576 472.429 89.768 470.466 89.768ZM503.849 89V62.184H489.385V57.896H509.097V89H503.849ZM505.897 51.368C504.702 51.368 503.7 51.0053 502.889 50.28C502.078 49.512 501.673 48.5093 501.673 47.272C501.673 46.0347 502.078 45.0533 502.889 44.328C503.7 43.56 504.702 43.176 505.897 43.176C507.092 43.176 508.094 43.56 508.905 44.328C509.716 45.0533 510.121 46.0347 510.121 47.272C510.121 48.5093 509.716 49.512 508.905 50.28C508.094 51.0053 507.092 51.368 505.897 51.368ZM538.384 89L525.264 57.896H530.576L537.744 75.56C538.384 77.1387 538.981 78.696 539.536 80.232C540.133 81.7253 540.709 83.2187 541.264 84.712H541.52C542.075 83.2187 542.608 81.7253 543.12 80.232C543.675 78.696 544.272 77.1387 544.912 75.56L552.08 57.896H557.136L544.272 89H538.384ZM576.119 89.768C574.668 89.768 573.303 89.5547 572.023 89.128C570.743 88.744 569.612 88.1893 568.631 87.464C567.692 86.696 566.946 85.7787 566.391 84.712C565.836 83.6027 565.559 82.344 565.559 80.936C565.559 79.1867 565.964 77.672 566.775 76.392C567.628 75.0693 568.951 73.9387 570.743 73C572.578 72.0613 574.924 71.2933 577.783 70.696C580.642 70.0987 584.076 69.6293 588.087 69.288C588.044 68.2213 587.874 67.2187 587.575 66.28C587.276 65.3413 586.807 64.5307 586.167 63.848C585.527 63.1227 584.674 62.5467 583.607 62.12C582.583 61.6933 581.324 61.48 579.831 61.48C577.783 61.48 575.82 61.8853 573.943 62.696C572.066 63.464 570.402 64.296 568.951 65.192L566.903 61.608C567.671 61.096 568.567 60.584 569.591 60.072C570.658 59.5173 571.767 59.0267 572.919 58.6C574.114 58.1733 575.372 57.832 576.695 57.576C578.018 57.2773 579.362 57.128 580.727 57.128C584.994 57.128 588.151 58.3013 590.199 60.648C592.29 62.952 593.335 66.0453 593.335 69.928V89H589.047L588.599 84.776H588.407C586.658 86.1413 584.716 87.3147 582.583 88.296C580.492 89.2773 578.338 89.768 576.119 89.768ZM577.527 85.544C579.319 85.544 581.068 85.16 582.775 84.392C584.524 83.5813 586.295 82.4293 588.087 80.936V72.744C584.759 73 581.964 73.3627 579.703 73.832C577.484 74.3013 575.692 74.8773 574.327 75.56C573.004 76.2 572.066 76.9467 571.511 77.8C570.956 78.6107 570.679 79.528 570.679 80.552C570.679 81.448 570.871 82.216 571.255 82.856C571.639 83.4533 572.13 83.9653 572.727 84.392C573.367 84.776 574.092 85.0747 574.903 85.288C575.756 85.4587 576.631 85.544 577.527 85.544Z" fill="white"/>
</g>
<circle cx="62.5" cy="79.5" r="42.5" fill="#242F42"/>
<path d="M36.8341 61.4584L36.8267 61.4713L36.8201 61.4846C36.4085 62.3082 36.423 63.277 36.8869 64.2055L36.8946 64.2208L36.9032 64.2355L44.4559 77.0766L44.4581 77.0803C44.95 77.9007 45.8486 78.3932 46.7584 78.3932H61.9306C62.9157 78.3932 63.7434 77.8933 64.2309 77.0803L64.231 77.0803L64.2362 77.0711L71.7196 63.9668C72.2121 63.1417 72.2117 62.1451 71.7185 61.3202C71.7179 61.3192 71.7173 61.3182 71.7167 61.3172L64.1673 48.3478L64.1674 48.3478L64.164 48.3422C63.6721 47.5218 62.7735 47.0293 61.8638 47.0293H46.6915C45.7064 47.0293 44.8787 47.5292 44.3912 48.3422L44.3912 48.3422L44.3868 48.3497L36.8341 61.4584ZM64.2309 111.658L64.2342 111.652L71.7836 98.6829C71.7842 98.6819 71.7847 98.6809 71.7853 98.6799C72.2839 97.846 72.2748 96.8452 71.7153 95.959L64.1673 82.9922L64.1674 82.9922L64.164 82.9866C63.6721 82.1662 62.7735 81.6736 61.8638 81.6736H46.6915C45.7064 81.6736 44.8787 82.1736 44.3912 82.9866L44.3911 82.9865L44.3853 82.9967L36.9022 96.1675C36.4098 96.993 36.4105 97.9898 36.9042 98.8147C36.9046 98.8154 36.905 98.816 36.9054 98.8166L44.4559 111.654L44.4581 111.658C44.95 112.478 45.8486 112.971 46.7584 112.971H61.9306C62.9157 112.971 63.7434 112.471 64.2309 111.658ZM94.5085 94.3356L94.5086 94.3356L94.5124 94.329L102.061 81.2938C102.062 81.2927 102.063 81.2916 102.063 81.2904C102.557 80.465 102.556 79.4678 102.063 78.6424C102.062 78.6414 102.062 78.6403 102.061 78.6393L94.5118 65.67L94.5085 65.6644C94.0166 64.844 93.118 64.3514 92.2082 64.3514H77.036C76.0508 64.3514 75.2232 64.8514 74.7357 65.6644L74.7356 65.6644L74.7307 65.6729L67.1804 78.8443C66.6875 79.6699 66.6879 80.6671 67.1818 81.4924C67.1822 81.493 67.1826 81.4937 67.183 81.4944L74.7335 94.332L74.7357 94.3356C75.2276 95.156 76.1262 95.6486 77.036 95.6486H92.2082C93.1934 95.6486 94.021 95.1486 94.5085 94.3356ZM11.5 79.9666C11.5 51.5513 34.6021 28.5 63 28.5C91.3964 28.5 114.434 51.6169 114.5 79.9677C114.499 108.383 91.3967 131.5 63 131.5C34.6029 131.5 11.5 108.383 11.5 79.9666Z" fill="#ECD581" stroke="#242F42"/>
<line x1="356" y1="129" x2="592" y2="129" stroke="#242F42" stroke-width="4" stroke-linecap="round"/>
<line x1="145.99" y1="129.99" x2="351.991" y2="129.01" stroke="#ECD581" stroke-width="4" stroke-linecap="round"/>
<defs>
<filter id="filter0_d_202_41" x="138.762" y="43.176" width="459.573" height="51.5919" filterUnits="userSpaceOnUse" color-interpolation-filters="sRGB">
<feFlood flood-opacity="0" result="BackgroundImageFix"/>
<feColorMatrix in="SourceAlpha" type="matrix" values="0 0 0 0 0 0 0 0 0 0 0 0 0 0 0 0 0 0 127 0" result="hardAlpha"/>
<feOffset dx="4" dy="4"/>
<feGaussianBlur stdDeviation="0.5"/>
<feComposite in2="hardAlpha" operator="out"/>
<feColorMatrix type="matrix" values="0 0 0 0 0.141176 0 0 0 0 0.184314 0 0 0 0 0.258824 0 0 0 1 0"/>
<feBlend mode="normal" in2="BackgroundImageFix" result="effect1_dropShadow_202_41"/>
<feBlend mode="normal" in="SourceGraphic" in2="effect1_dropShadow_202_41" result="shape"/>
</filter>
</defs>
</svg>
