<svg width="580" height="160" viewBox="0 0 580 160" fill="none" xmlns="http://www.w3.org/2000/svg">
<path d="M149.395 95L137.171 62.744H143.891L153.427 89.624H151.763L161.555 62.744H166.547L176.275 89.624H174.675L184.211 62.744H190.675L178.387 95H172.499L162.387 67.608H165.395L155.411 95H149.395ZM215.457 95.576C210.251 95.576 206.155 94.104 203.169 91.16C200.182 88.216 198.689 84.1413 198.689 78.936C198.689 75.5653 199.329 72.6213 200.609 70.104C201.931 67.5867 203.745 65.6453 206.049 64.28C208.395 62.872 211.105 62.168 214.177 62.168C217.206 62.168 219.745 62.808 221.793 64.088C223.841 65.368 225.398 67.1813 226.465 69.528C227.531 71.832 228.065 74.5627 228.065 77.72V79.768H203.745V76.056H223.649L222.561 76.888C222.561 73.688 221.835 71.2133 220.385 69.464C218.977 67.672 216.929 66.776 214.241 66.776C211.254 66.776 208.95 67.8213 207.329 69.912C205.707 71.96 204.897 74.7973 204.897 78.424V79.064C204.897 82.8613 205.814 85.72 207.649 87.64C209.526 89.56 212.171 90.52 215.585 90.52C217.462 90.52 219.211 90.264 220.833 89.752C222.497 89.1973 224.075 88.3013 225.569 87.064L227.681 91.48C226.187 92.8027 224.374 93.8267 222.241 94.552C220.107 95.2347 217.846 95.576 215.457 95.576ZM257.178 95.576C254.362 95.576 251.909 94.872 249.818 93.464C247.728 92.056 246.341 90.136 245.658 87.704H246.362V95H239.962V47.896H246.426V69.912H245.658C246.384 67.5227 247.77 65.6453 249.818 64.28C251.909 62.872 254.362 62.168 257.178 62.168C260.037 62.168 262.533 62.8507 264.666 64.216C266.8 65.5387 268.442 67.4587 269.594 69.976C270.789 72.4507 271.386 75.4373 271.386 78.936C271.386 82.392 270.789 85.3787 269.594 87.896C268.442 90.3707 266.778 92.2693 264.602 93.592C262.469 94.9147 259.994 95.576 257.178 95.576ZM255.578 90.52C258.352 90.52 260.592 89.56 262.298 87.64C264.005 85.6773 264.858 82.776 264.858 78.936C264.858 75.0533 264.005 72.152 262.298 70.232C260.592 68.2693 258.352 67.288 255.578 67.288C252.762 67.288 250.501 68.2693 248.794 70.232C247.13 72.152 246.298 75.032 246.298 78.872C246.298 82.712 247.13 85.6133 248.794 87.576C250.501 89.5387 252.762 90.52 255.578 90.52ZM319.129 95.576C315.886 95.576 313.049 94.9147 310.617 93.592C308.227 92.2267 306.371 90.2853 305.049 87.768C303.769 85.208 303.129 82.1787 303.129 78.68C303.129 75.224 303.79 72.2587 305.113 69.784C306.435 67.3093 308.291 65.432 310.681 64.152C313.07 62.8293 315.886 62.168 319.129 62.168C321.219 62.168 323.246 62.5307 325.209 63.256C327.171 63.9387 328.793 64.92 330.073 66.2L327.961 70.744C326.766 69.592 325.422 68.7387 323.929 68.184C322.435 67.5867 320.985 67.288 319.577 67.288C316.505 67.288 314.094 68.2693 312.345 70.232C310.595 72.1947 309.721 75.032 309.721 78.744C309.721 82.4987 310.595 85.3787 312.345 87.384C314.094 89.3893 316.505 90.392 319.577 90.392C320.942 90.392 322.371 90.136 323.865 89.624C325.358 89.0693 326.723 88.1947 327.961 87L330.073 91.544C328.75 92.824 327.086 93.8267 325.081 94.552C323.118 95.2347 321.134 95.576 319.129 95.576ZM341.274 95V70.744C341.274 69.4213 341.232 68.0987 341.146 66.776C341.104 65.4107 341.018 64.0667 340.89 62.744H347.162L347.866 71.064H346.842C347.269 69.0587 347.994 67.3947 349.018 66.072C350.042 64.7493 351.28 63.768 352.73 63.128C354.224 62.488 355.781 62.168 357.402 62.168C358.085 62.168 358.661 62.2107 359.13 62.296C359.6 62.3387 360.069 62.424 360.538 62.552L360.474 68.312C359.749 68.0133 359.109 67.8427 358.554 67.8C358.042 67.7147 357.402 67.672 356.634 67.672C354.757 67.672 353.157 68.0987 351.834 68.952C350.512 69.7627 349.509 70.872 348.826 72.28C348.144 73.688 347.802 75.2027 347.802 76.824V95H341.274ZM384.482 95.576C379.276 95.576 375.18 94.104 372.194 91.16C369.207 88.216 367.714 84.1413 367.714 78.936C367.714 75.5653 368.354 72.6213 369.634 70.104C370.956 67.5867 372.77 65.6453 375.074 64.28C377.42 62.872 380.13 62.168 383.202 62.168C386.231 62.168 388.77 62.808 390.818 64.088C392.866 65.368 394.423 67.1813 395.49 69.528C396.556 71.832 397.09 74.5627 397.09 77.72V79.768H372.77V76.056H392.674L391.586 76.888C391.586 73.688 390.86 71.2133 389.41 69.464C388.002 67.672 385.954 66.776 383.266 66.776C380.279 66.776 377.975 67.8213 376.354 69.912C374.732 71.96 373.922 74.7973 373.922 78.424V79.064C373.922 82.8613 374.839 85.72 376.674 87.64C378.551 89.56 381.196 90.52 384.61 90.52C386.487 90.52 388.236 90.264 389.858 89.752C391.522 89.1973 393.1 88.3013 394.594 87.064L396.706 91.48C395.212 92.8027 393.399 93.8267 391.266 94.552C389.132 95.2347 386.871 95.576 384.482 95.576ZM421.339 95.576C418.481 95.576 415.985 94.9147 413.851 93.592C411.718 92.2693 410.054 90.3493 408.859 87.832C407.707 85.3147 407.131 82.328 407.131 78.872C407.131 75.3733 407.707 72.3867 408.859 69.912C410.054 67.4373 411.718 65.5387 413.851 64.216C415.985 62.8507 418.481 62.168 421.339 62.168C424.155 62.168 426.609 62.872 428.699 64.28C430.79 65.688 432.177 67.608 432.859 70.04H432.155L432.795 62.744H439.067C438.939 64.0667 438.811 65.3893 438.683 66.712C438.598 67.992 438.555 69.2507 438.555 70.488V95H432.091V87.832H432.795C432.113 90.2213 430.705 92.12 428.571 93.528C426.481 94.8933 424.07 95.576 421.339 95.576ZM422.939 90.52C425.713 90.52 427.931 89.5387 429.595 87.576C431.302 85.6133 432.155 82.712 432.155 78.872C432.155 75.032 431.302 72.152 429.595 70.232C427.931 68.2693 425.713 67.288 422.939 67.288C420.123 67.288 417.862 68.2693 416.155 70.232C414.491 72.152 413.659 75.032 413.659 78.872C413.659 82.712 414.491 85.6133 416.155 87.576C417.819 89.5387 420.081 90.52 422.939 90.52ZM465.011 95.576C461.513 95.576 458.867 94.6373 457.075 92.76C455.283 90.84 454.387 87.9813 454.387 84.184V67.736H448.115V62.744H454.387V54.232L460.851 52.504V62.744H469.811V67.736H460.851V83.608C460.851 85.9973 461.278 87.704 462.131 88.728C462.985 89.752 464.222 90.264 465.843 90.264C466.654 90.264 467.358 90.2 467.955 90.072C468.595 89.9013 469.171 89.7093 469.683 89.496V94.744C469.043 95 468.297 95.192 467.443 95.32C466.59 95.4907 465.779 95.576 465.011 95.576ZM480.197 95V62.744H486.661V95H480.197ZM479.685 56.024V49.304H487.173V56.024H479.685ZM510.087 95L496.263 62.744H503.175L514.055 89.688H512.199L523.271 62.744H529.863L515.975 95H510.087ZM551.197 95.576C548.338 95.576 545.842 94.9147 543.709 93.592C541.575 92.2693 539.911 90.3493 538.717 87.832C537.565 85.3147 536.989 82.328 536.989 78.872C536.989 75.3733 537.565 72.3867 538.717 69.912C539.911 67.4373 541.575 65.5387 543.709 64.216C545.842 62.8507 548.338 62.168 551.197 62.168C554.013 62.168 556.466 62.872 558.557 64.28C560.647 65.688 562.034 67.608 562.717 70.04H562.013L562.653 62.744H568.925C568.797 64.0667 568.669 65.3893 568.541 66.712C568.455 67.992 568.413 69.2507 568.413 70.488V95H561.949V87.832H562.653C561.97 90.2213 560.562 92.12 558.429 93.528C556.338 94.8933 553.927 95.576 551.197 95.576ZM552.797 90.52C555.57 90.52 557.789 89.5387 559.453 87.576C561.159 85.6133 562.013 82.712 562.013 78.872C562.013 75.032 561.159 72.152 559.453 70.232C557.789 68.2693 555.57 67.288 552.797 67.288C549.981 67.288 547.719 68.2693 546.013 70.232C544.349 72.152 543.517 75.032 543.517 78.872C543.517 82.712 544.349 85.6133 546.013 87.576C547.677 89.5387 549.938 90.52 552.797 90.52Z" fill="#FDFBF2"/>
<circle cx="62.5" cy="79.5" r="42.5" fill="#001D3D"/>
<path d="M63 28C34.3265 28 11 51.2746 11 79.9666C11 108.659 34.3265 132 63 132C91.6735 132 115 108.659 115 79.9666C114.933 51.3415 91.6735 28 63 28ZM37.2674 61.708L44.82 48.5994C45.2211 47.9305 45.8895 47.5293 46.6915 47.5293H61.8638C62.599 47.5293 63.3342 47.9305 63.7352 48.5994L71.2879 61.5743C71.6889 62.2431 71.6889 63.0457 71.2879 63.7145L63.8021 76.8232C63.401 77.492 62.7326 77.8932 61.9306 77.8932H46.7584C46.0231 77.8932 45.2879 77.492 44.8869 76.8232L37.3342 63.982C36.9332 63.1794 36.9332 62.3769 37.2674 61.708ZM71.3548 98.4257L63.8021 111.401C63.401 112.069 62.7326 112.471 61.9306 112.471H46.7584C46.0231 112.471 45.2879 112.069 44.8869 111.401L37.3342 98.5595C36.9332 97.8907 36.9332 97.0881 37.3342 96.4193L44.82 83.2437C45.2211 82.5749 45.8895 82.1736 46.6915 82.1736H61.8638C62.599 82.1736 63.3342 82.5749 63.7352 83.2437L71.2879 96.2187C71.7558 96.9543 71.7558 97.7569 71.3548 98.4257ZM94.0797 94.0785C93.6787 94.7473 93.0103 95.1486 92.2082 95.1486H77.036C76.3008 95.1486 75.5656 94.7473 75.1645 94.0785L67.6118 81.2373C67.2108 80.5685 67.2108 79.7659 67.6118 79.0971L75.1645 65.9215C75.5656 65.2527 76.2339 64.8514 77.036 64.8514H92.2082C92.9434 64.8514 93.6787 65.2527 94.0797 65.9215L101.632 78.8965C102.033 79.5653 102.033 80.3678 101.632 81.0367L94.0797 94.0785Z" fill="#ECD581"/>
<line x1="330" y1="130" x2="566" y2="130" stroke="#ECD581" stroke-width="4" stroke-linecap="round"/>
</svg>
